<?xml version="1.0" standalone="no"?><!DOCTYPE svg PUBLIC "-//W3C//DTD SVG 1.1//EN" "http://www.w3.org/Graphics/SVG/1.1/DTD/svg11.dtd"><svg height="253" node-id="1" sillyvg="true" template-height="253" template-width="257" version="1.1" viewBox="0 0 257 253" width="257" xmlns="http://www.w3.org/2000/svg" xmlns:xlink="http://www.w3.org/1999/xlink"><defs node-id="173"></defs><g node-id="763"><g node-id="766"><g node-id="810"><path d="M 56.70 47.70 L 145.60 47.70 L 145.60 105.20 L 56.70 105.20 Z" fill="#e8fff9" fill-rule="nonzero" group-id="1,4,48" node-id="180" stroke="none" target-height="57.499996" target-width="88.90001" target-x="56.7" target-y="47.7"></path><path d="M 145.60 106.70 L 56.10 106.50 L 55.30 105.70 L 55.20 105.20 L 55.20 47.70 L 55.30 47.10 L 56.10 46.30 L 146.20 46.30 L 147.00 47.10 L 147.10 47.70 L 147.10 105.20 L 146.70 106.20 L 145.60 106.70 Z M 58.20 103.70 L 144.10 103.70 L 144.10 49.20 L 58.20 49.20 L 58.20 103.70 Z" fill="#ccccde" fill-rule="nonzero" group-id="1,4,48" node-id="182" stroke="none" target-height="60.399998" target-width="91.90001" target-x="55.2" target-y="46.3"></path></g><path d="M 67.60 60.60 L 111.40 60.60 L 111.40 63.60 L 67.60 63.60 Z" fill="#ccccde" fill-rule="nonzero" group-id="1,4" node-id="185" stroke="none" target-height="3" target-width="43.800003" target-x="67.6" target-y="60.6"></path><path d="M 67.60 71.50 L 88.10 71.50 L 88.10 74.50 L 67.60 74.50 Z" fill="#ccccde" fill-rule="nonzero" group-id="1,4" node-id="187" stroke="none" target-height="3" target-width="20.5" target-x="67.6" target-y="71.5"></path><path d="M 101.10 72.20 L 115.50 72.20 L 115.50 75.20 L 101.10 75.20 Z" fill="#ccccde" fill-rule="nonzero" group-id="1,4" node-id="189" stroke="none" target-height="3" target-width="14.400002" target-x="101.1" target-y="72.2"></path><path d="M 119.60 59.90 L 132.30 59.90 L 132.30 62.90 L 119.60 62.90 Z" fill="#ccccde" fill-rule="nonzero" group-id="1,4" node-id="191" stroke="none" target-height="3" target-width="12.700005" target-x="119.6" target-y="59.9"></path><path d="M 67.60 81.80 L 104.70 81.80 L 104.70 84.80 L 67.60 84.80 Z" fill="#ccccde" fill-rule="nonzero" group-id="1,4" node-id="193" stroke="none" target-height="3" target-width="37.1" target-x="67.6" target-y="81.8"></path></g><g node-id="767"><path d="M 253.20 126.50 L 253.60 137.10 L 253.20 156.00 L 251.30 172.30 L 249.70 180.60 L 247.80 188.00 L 245.60 194.60 L 243.10 200.70 L 240.40 206.10 L 237.00 211.40 L 233.50 216.00 L 229.70 220.00 L 225.60 223.30 L 221.30 226.00 L 215.50 229.00 L 209.30 231.60 L 202.50 233.90 L 195.10 236.00 L 185.20 238.00 L 174.60 239.70 L 163.10 240.80 L 139.60 241.80 L 127.00 241.70 L 119.90 241.30 L 113.00 240.40 L 106.20 239.20 L 99.50 237.60 L 93.00 235.60 L 80.30 230.50 L 74.20 227.50 L 66.40 222.90 L 58.90 217.80 L 51.70 212.10 L 45.00 206.00 L 38.60 199.40 L 32.70 192.30 L 25.20 182.30 L 18.90 173.00 L 13.60 164.20 L 9.90 157.20 L 6.90 150.80 L 4.50 144.70 L 2.70 139.10 L 1.30 133.10 L 0.50 127.60 L 0.40 122.70 L 0.80 118.10 L 1.70 113.50 L 3.20 108.60 L 5.20 103.40 L 7.80 97.80 L 11.80 90.60 L 16.60 82.90 L 28.40 66.40 L 42.80 48.60 L 48.70 41.90 L 54.80 35.70 L 61.10 29.90 L 67.70 24.60 L 74.50 19.70 L 81.60 15.30 L 88.70 11.50 L 96.00 8.30 L 102.00 6.20 L 108.10 4.40 L 114.30 3.20 L 120.60 2.30 L 127.00 1.90 L 137.70 1.90 L 148.00 2.40 L 158.00 3.30 L 165.40 4.30 L 179.60 7.50 L 186.30 9.50 L 192.90 12.00 L 199.30 14.80 L 205.30 18.10 L 211.20 21.80 L 215.30 24.70 L 219.30 28.20 L 223.20 32.40 L 227.00 37.20 L 230.40 42.10 L 233.60 47.60 L 236.70 53.70 L 242.20 67.20 L 246.70 82.20 L 250.20 98.90 L 252.50 116.80 L 253.20 126.50 Z" fill="#c7e1ff" fill-rule="nonzero" group-id="1,5" node-id="198" stroke="none" target-height="239.90001" target-width="253.20001" target-x="0.4" target-y="1.9"></path></g><g node-id="768"><g node-id="811"><path d="M 223.50 75.20 L 140.30 75.20 L 140.30 197.50 L 236.90 197.50 L 236.90 88.00 Z" fill="#ffffff" fill-opacity="0.58" fill-rule="nonzero" group-id="1,6,49" node-id="205" stroke="none" target-height="122.3" target-width="96.59999" target-x="140.3" target-y="75.2"></path><path d="M 236.90 199.00 L 140.30 199.00 L 139.20 198.50 L 138.80 197.50 L 138.80 75.20 L 138.90 74.60 L 139.70 73.80 L 223.50 73.70 L 224.50 74.10 L 238.00 86.90 L 238.40 88.00 L 238.40 197.50 L 238.00 198.50 L 236.90 199.00 Z M 141.80 196.00 L 235.40 196.00 L 235.40 88.70 L 222.90 76.70 L 141.80 76.70 L 141.80 196.00 Z" fill="#ccccde" fill-opacity="0.58" fill-rule="nonzero" group-id="1,6,49" node-id="207" stroke="none" target-height="125.3" target-width="99.59999" target-x="138.8" target-y="73.7"></path></g><g node-id="812"><path d="M 236.90 88.00 L 223.50 88.00 L 223.50 75.20 Z" fill="#ffffff" fill-opacity="0.58" fill-rule="nonzero" group-id="1,6,50" node-id="212" stroke="none" target-height="12.800003" target-width="13.399994" target-x="223.5" target-y="75.2"></path><path d="M 237.00 89.50 L 223.50 89.50 L 222.40 89.10 L 222.00 88.00 L 222.00 75.20 L 222.20 74.40 L 222.90 73.80 L 223.80 73.70 L 224.50 74.10 L 237.80 86.80 L 238.30 87.30 L 238.30 88.60 L 237.50 89.40 L 237.00 89.50 Z M 225.00 86.50 L 233.20 86.50 L 225.00 78.70 L 225.00 86.50 Z" fill="#ccccde" fill-opacity="0.58" fill-rule="nonzero" group-id="1,6,50" node-id="214" stroke="none" target-height="15.800003" target-width="16.300003" target-x="222" target-y="73.7"></path></g><g node-id="813"><path d="M 195.30 96.00 L 178.10 96.00 L 177.00 95.50 L 176.60 94.50 L 177.00 93.40 L 178.10 93.00 L 195.30 93.00 L 196.40 93.40 L 196.80 94.50 L 196.40 95.50 L 195.30 96.00 Z" fill="#6e6e96" fill-opacity="0.12179999" fill-rule="nonzero" group-id="1,6,51" node-id="219" stroke="none" target-height="3" target-width="20.199997" target-x="176.6" target-y="93"></path></g><g node-id="814"><path d="M 199.30 107.70 L 155.50 107.70 L 154.50 107.20 L 154.00 106.20 L 154.50 105.10 L 155.50 104.70 L 199.30 104.70 L 200.40 105.10 L 200.80 106.20 L 200.40 107.20 L 199.30 107.70 Z" fill="#6e6e96" fill-opacity="0.12179999" fill-rule="nonzero" group-id="1,6,52" node-id="224" stroke="none" target-height="3" target-width="46.800003" target-x="154" target-y="104.7"></path><path d="M 218.60 107.70 L 208.00 107.50 L 207.20 106.80 L 207.20 105.60 L 208.00 104.80 L 208.60 104.70 L 219.10 104.80 L 219.90 105.60 L 219.90 106.80 L 219.10 107.50 L 218.60 107.70 Z" fill="#6e6e96" fill-opacity="0.12179999" fill-rule="nonzero" group-id="1,6,52" node-id="226" stroke="none" target-height="3" target-width="12.699997" target-x="207.2" target-y="104.7"></path><path d="M 191.40 113.60 L 155.50 113.60 L 155.00 113.50 L 154.20 112.70 L 154.20 111.60 L 155.00 110.80 L 191.40 110.60 L 192.40 111.10 L 192.90 112.10 L 192.40 113.20 L 191.40 113.60 Z" fill="#6e6e96" fill-opacity="0.12179999" fill-rule="nonzero" group-id="1,6,52" node-id="228" stroke="none" target-height="3" target-width="38.699997" target-x="154.2" target-y="110.6"></path><path d="M 218.60 113.60 L 196.00 113.60 L 195.40 113.50 L 194.60 112.70 L 194.60 111.60 L 195.40 110.80 L 218.60 110.60 L 219.60 111.10 L 220.10 112.10 L 219.60 113.20 L 218.60 113.60 Z" fill="#6e6e96" fill-opacity="0.12179999" fill-rule="nonzero" group-id="1,6,52" node-id="230" stroke="none" target-height="3" target-width="25.5" target-x="194.6" target-y="110.6"></path><path d="M 172.50 120.90 L 155.50 120.90 L 155.00 120.80 L 154.20 120.00 L 154.20 118.80 L 155.00 118.10 L 172.50 117.90 L 173.50 118.40 L 174.00 119.40 L 173.50 120.50 L 172.50 120.90 Z" fill="#6e6e96" fill-opacity="0.12179999" fill-rule="nonzero" group-id="1,6,52" node-id="232" stroke="none" target-height="3" target-width="19.800003" target-x="154.2" target-y="117.9"></path><path d="M 188.70 120.90 L 178.20 120.80 L 177.40 120.00 L 177.30 119.40 L 177.40 118.80 L 178.20 118.10 L 189.30 118.10 L 190.10 118.80 L 190.10 120.00 L 189.30 120.80 L 188.70 120.90 Z" fill="#6e6e96" fill-opacity="0.12179999" fill-rule="nonzero" group-id="1,6,52" node-id="234" stroke="none" target-height="2.800003" target-width="12.800003" target-x="177.3" target-y="118.1"></path><path d="M 218.60 120.90 L 193.40 120.90 L 192.80 120.80 L 192.00 120.00 L 192.00 118.80 L 192.80 118.10 L 218.60 117.90 L 219.60 118.40 L 220.10 119.40 L 219.60 120.50 L 218.60 120.90 Z" fill="#6e6e96" fill-opacity="0.12179999" fill-rule="nonzero" group-id="1,6,52" node-id="236" stroke="none" target-height="3" target-width="28.100006" target-x="192" target-y="117.9"></path><path d="M 182.40 128.20 L 155.50 128.20 L 155.00 128.10 L 154.20 127.30 L 154.20 126.10 L 155.00 125.30 L 182.40 125.20 L 183.50 125.70 L 183.90 126.70 L 183.50 127.80 L 182.40 128.20 Z" fill="#6e6e96" fill-opacity="0.12179999" fill-rule="nonzero" group-id="1,6,52" node-id="238" stroke="none" target-height="3" target-width="29.699997" target-x="154.2" target-y="125.2"></path><path d="M 193.00 128.20 L 189.70 128.20 L 188.60 127.80 L 188.20 126.70 L 188.30 126.10 L 189.10 125.30 L 189.70 125.20 L 193.00 125.20 L 194.10 125.70 L 194.50 126.70 L 194.40 127.30 L 193.60 128.10 L 193.00 128.20 Z" fill="#6e6e96" fill-opacity="0.12179999" fill-rule="nonzero" group-id="1,6,52" node-id="240" stroke="none" target-height="3" target-width="6.300003" target-x="188.2" target-y="125.2"></path><path d="M 218.60 128.20 L 199.70 128.20 L 199.10 128.10 L 198.30 127.30 L 198.30 126.10 L 199.10 125.30 L 218.60 125.20 L 219.60 125.70 L 220.10 126.70 L 219.60 127.80 L 218.60 128.20 Z" fill="#6e6e96" fill-opacity="0.12179999" fill-rule="nonzero" group-id="1,6,52" node-id="242" stroke="none" target-height="3" target-width="21.800003" target-x="198.3" target-y="125.2"></path></g><g node-id="815"><path d="M 194.40 182.50 L 193.40 182.20 L 193.00 181.70 L 192.90 180.60 L 193.20 180.10 L 197.60 175.10 L 200.80 172.30 L 203.10 170.90 L 204.60 170.50 L 205.80 170.70 L 207.00 172.10 L 207.30 173.90 L 206.80 179.30 L 211.40 175.40 L 212.60 175.10 L 213.60 175.20 L 214.80 176.30 L 218.60 174.70 L 219.80 174.70 L 220.60 175.50 L 220.70 176.10 L 220.30 177.10 L 214.30 179.80 L 212.90 179.60 L 212.30 178.50 L 208.70 181.70 L 206.40 182.50 L 205.30 182.20 L 204.00 180.60 L 203.80 177.20 L 204.30 173.60 L 202.00 175.20 L 198.90 178.20 L 195.50 182.00 L 194.40 182.50 Z" fill="#6e6e96" fill-opacity="0.174" fill-rule="nonzero" group-id="1,6,53" node-id="247" stroke="none" target-height="12" target-width="27.800003" target-x="192.9" target-y="170.5"></path></g><g node-id="816"><path d="M 191.00 135.20 L 155.50 135.20 L 155.00 135.10 L 154.20 134.30 L 154.20 133.10 L 155.00 132.30 L 191.00 132.20 L 192.10 132.60 L 192.50 133.70 L 192.10 134.80 L 191.00 135.20 Z" fill="#6e6e96" fill-opacity="0.12179999" fill-rule="nonzero" group-id="1,6,54" node-id="252" stroke="none" target-height="3" target-width="38.300003" target-x="154.2" target-y="132.2"></path></g><g node-id="817"><path d="M 199.30 141.40 L 155.50 141.40 L 155.00 141.20 L 154.20 140.40 L 154.20 139.30 L 155.00 138.50 L 199.30 138.40 L 200.40 138.80 L 200.80 139.90 L 200.40 140.90 L 199.30 141.40 Z" fill="#6e6e96" fill-opacity="0.12179999" fill-rule="nonzero" group-id="1,6,55" node-id="257" stroke="none" target-height="3" target-width="46.600006" target-x="154.2" target-y="138.4"></path><path d="M 218.60 141.40 L 208.00 141.20 L 207.20 140.40 L 207.10 139.90 L 207.20 139.30 L 208.00 138.50 L 219.10 138.50 L 219.90 139.30 L 219.90 140.40 L 219.10 141.20 L 218.60 141.40 Z" fill="#6e6e96" fill-opacity="0.12179999" fill-rule="nonzero" group-id="1,6,55" node-id="259" stroke="none" target-height="2.899994" target-width="12.799988" target-x="207.1" target-y="138.5"></path><path d="M 191.40 147.30 L 155.50 147.30 L 155.00 147.20 L 154.20 146.40 L 154.20 145.20 L 155.00 144.50 L 191.40 144.30 L 192.40 144.80 L 192.90 145.80 L 192.40 146.90 L 191.40 147.30 Z" fill="#6e6e96" fill-opacity="0.12179999" fill-rule="nonzero" group-id="1,6,55" node-id="261" stroke="none" target-height="3" target-width="38.699997" target-x="154.2" target-y="144.3"></path><path d="M 218.60 147.30 L 196.00 147.30 L 195.40 147.20 L 194.60 146.40 L 194.60 145.20 L 195.40 144.50 L 218.60 144.30 L 219.60 144.80 L 220.10 145.80 L 219.60 146.90 L 218.60 147.30 Z" fill="#6e6e96" fill-opacity="0.12179999" fill-rule="nonzero" group-id="1,6,55" node-id="263" stroke="none" target-height="3" target-width="25.5" target-x="194.6" target-y="144.3"></path><path d="M 172.50 154.60 L 155.50 154.60 L 155.00 154.50 L 154.20 153.70 L 154.20 152.50 L 155.00 151.70 L 172.50 151.60 L 173.50 152.10 L 174.00 153.10 L 173.50 154.20 L 172.50 154.60 Z" fill="#6e6e96" fill-opacity="0.12179999" fill-rule="nonzero" group-id="1,6,55" node-id="265" stroke="none" target-height="3" target-width="19.800003" target-x="154.2" target-y="151.6"></path><path d="M 188.70 154.60 L 178.20 154.50 L 177.40 153.70 L 177.30 153.10 L 177.40 152.50 L 178.20 151.70 L 189.30 151.70 L 190.10 152.50 L 190.10 153.70 L 189.30 154.50 L 188.70 154.60 Z" fill="#6e6e96" fill-opacity="0.12179999" fill-rule="nonzero" group-id="1,6,55" node-id="267" stroke="none" target-height="2.9000092" target-width="12.800003" target-x="177.3" target-y="151.7"></path><path d="M 218.60 154.60 L 193.40 154.60 L 192.80 154.50 L 192.00 153.70 L 192.00 152.50 L 192.80 151.70 L 218.60 151.60 L 219.60 152.10 L 220.10 153.10 L 219.60 154.20 L 218.60 154.60 Z" fill="#6e6e96" fill-opacity="0.12179999" fill-rule="nonzero" group-id="1,6,55" node-id="269" stroke="none" target-height="3" target-width="28.100006" target-x="192" target-y="151.6"></path><path d="M 182.40 161.90 L 155.50 161.90 L 155.00 161.80 L 154.20 161.00 L 154.20 159.80 L 155.00 159.00 L 182.40 158.90 L 183.50 159.40 L 183.90 160.40 L 183.50 161.50 L 182.40 161.90 Z" fill="#6e6e96" fill-opacity="0.12179999" fill-rule="nonzero" group-id="1,6,55" node-id="271" stroke="none" target-height="3" target-width="29.699997" target-x="154.2" target-y="158.9"></path><path d="M 193.00 161.90 L 189.70 161.90 L 188.60 161.50 L 188.20 160.40 L 188.30 159.80 L 189.10 159.00 L 189.70 158.90 L 193.00 158.90 L 194.10 159.40 L 194.50 160.40 L 194.40 161.00 L 193.60 161.80 L 193.00 161.90 Z" fill="#6e6e96" fill-opacity="0.12179999" fill-rule="nonzero" group-id="1,6,55" node-id="273" stroke="none" target-height="3" target-width="6.300003" target-x="188.2" target-y="158.9"></path><path d="M 218.60 161.90 L 199.70 161.90 L 199.10 161.80 L 198.30 161.00 L 198.30 159.80 L 199.10 159.00 L 218.60 158.90 L 219.60 159.40 L 220.10 160.40 L 219.60 161.50 L 218.60 161.90 Z" fill="#6e6e96" fill-opacity="0.12179999" fill-rule="nonzero" group-id="1,6,55" node-id="275" stroke="none" target-height="3" target-width="21.800003" target-x="198.3" target-y="158.9"></path></g></g><g node-id="769"><g node-id="818"><path d="M 1.60 196.70 L 1.60 151.70 L 72.60 151.70 L 72.60 222.70 L 27.60 222.70 Z" fill="#fafffa" fill-rule="nonzero" group-id="1,7,56" node-id="283" stroke="none" target-height="71" target-width="71" target-x="1.6" target-y="151.7"></path><path d="M 72.60 224.20 L 27.00 224.10 L 0.60 197.80 L 0.10 196.70 L 0.10 151.70 L 0.20 151.10 L 1.00 150.30 L 72.60 150.20 L 73.70 150.70 L 74.10 151.70 L 74.10 222.70 L 73.70 223.80 L 72.60 224.20 Z M 28.20 221.20 L 71.10 221.20 L 71.10 153.20 L 3.10 153.20 L 3.10 196.10 L 28.20 221.20 Z" fill="#ccccde" fill-rule="nonzero" group-id="1,7,56" node-id="285" stroke="none" target-height="74" target-width="74" target-x="0.1" target-y="150.2"></path></g><g node-id="819"><path d="M 1.60 196.70 L 27.60 196.70 L 27.60 222.70 Z" fill="#edffeb" fill-rule="nonzero" group-id="1,7,57" node-id="290" stroke="none" target-height="26" target-width="26" target-x="1.6" target-y="196.7"></path><path d="M 27.60 224.20 L 26.60 223.80 L 0.60 197.80 L 0.10 197.00 L 0.20 196.10 L 0.80 195.50 L 1.60 195.20 L 27.60 195.20 L 28.70 195.70 L 29.10 196.70 L 29.10 222.70 L 28.90 223.50 L 27.60 224.20 Z M 5.20 198.20 L 26.10 219.10 L 26.10 198.20 L 5.20 198.20 Z" fill="#ccccde" fill-rule="nonzero" group-id="1,7,57" node-id="292" stroke="none" target-height="29" target-width="29" target-x="0.1" target-y="195.2"></path></g></g></g><g node-id="764"><g node-id="770"><path d="M 226.00 203.20 L 223.00 203.20 L 223.00 140.20 L 222.80 138.80 L 221.50 136.50 L 219.20 135.20 L 217.60 135.00 L 215.00 135.70 L 213.10 137.50 L 212.40 140.20 L 212.40 149.50 L 212.10 151.70 L 211.30 153.70 L 210.00 155.30 L 208.30 156.60 L 206.40 157.40 L 204.20 157.70 L 180.60 157.70 L 180.60 154.70 L 204.20 154.70 L 206.80 154.00 L 208.70 152.10 L 209.20 150.90 L 209.40 140.20 L 209.70 138.00 L 210.50 136.00 L 211.80 134.40 L 213.40 133.10 L 215.40 132.30 L 217.60 132.00 L 220.00 132.30 L 221.90 133.10 L 223.60 134.40 L 224.90 136.00 L 225.70 138.00 L 226.00 140.20 L 226.00 203.20 Z" fill="#6e6e96" fill-rule="nonzero" group-id="2,8" node-id="301" stroke="none" target-height="71.2" target-width="45.399994" target-x="180.6" target-y="132"></path></g><g node-id="771"><path d="M 226.20 205.60 L 223.20 205.60 L 223.20 142.60 L 223.00 141.20 L 221.70 138.90 L 219.40 137.60 L 217.80 137.40 L 215.20 138.10 L 213.30 139.90 L 212.60 142.60 L 212.60 151.90 L 212.30 154.10 L 211.50 156.10 L 210.20 157.70 L 208.60 159.00 L 206.60 159.80 L 204.40 160.10 L 180.80 160.10 L 180.80 157.10 L 204.40 157.10 L 207.00 156.40 L 208.90 154.60 L 209.40 153.30 L 209.60 142.60 L 209.90 140.40 L 210.70 138.40 L 212.00 136.80 L 213.70 135.50 L 215.60 134.70 L 217.80 134.40 L 220.20 134.70 L 222.20 135.50 L 223.80 136.80 L 225.10 138.40 L 225.90 140.40 L 226.20 142.60 L 226.20 205.60 Z" fill="#6e6e96" fill-opacity="0.18" fill-rule="nonzero" group-id="2,9" node-id="306" stroke="none" target-height="71.20001" target-width="45.399994" target-x="180.8" target-y="134.4"></path></g><g node-id="772"><path d="M 228.10 187.50 L 227.30 189.30 L 225.50 190.00 L 223.10 189.80 L 221.70 188.50 L 221.50 187.50 L 221.70 178.90 L 223.10 177.50 L 224.10 177.30 L 226.50 177.50 L 227.90 178.90 L 228.10 187.50 Z" fill="#d5d7e0" fill-rule="nonzero" group-id="2,10" node-id="311" stroke="none" target-height="12.699997" target-width="6.600006" target-x="221.5" target-y="177.3"></path><path d="M 225.50 191.50 L 222.50 191.20 L 221.20 190.30 L 220.30 189.10 L 220.00 187.50 L 220.00 179.90 L 220.30 178.30 L 221.20 177.00 L 222.50 176.20 L 224.10 175.80 L 227.10 176.20 L 228.40 177.00 L 229.30 178.30 L 229.60 179.90 L 229.60 187.50 L 229.30 189.10 L 228.40 190.30 L 227.10 191.20 L 225.50 191.50 Z M 224.10 178.80 L 223.30 179.20 L 223.00 179.90 L 223.00 187.50 L 223.30 188.20 L 224.10 188.50 L 225.90 188.40 L 226.60 187.50 L 226.50 179.50 L 225.90 178.90 L 224.10 178.80 Z" fill="#6e6e96" fill-rule="nonzero" group-id="2,10" node-id="313" stroke="none" target-height="15.699997" target-width="9.600006" target-x="220" target-y="175.8"></path></g><g node-id="773"><path d="M 244.10 230.00 L 243.80 233.80 L 242.90 237.30 L 241.50 240.60 L 239.50 243.50 L 237.20 246.10 L 234.60 248.10 L 232.30 249.40 L 227.50 250.80 L 224.90 251.00 L 222.30 250.80 L 217.40 249.40 L 215.20 248.10 L 212.50 246.10 L 210.20 243.50 L 208.30 240.60 L 206.90 237.30 L 206.00 233.80 L 205.70 230.00 L 205.70 204.70 L 206.00 200.80 L 206.90 197.30 L 208.30 194.10 L 210.20 191.10 L 212.50 188.60 L 215.20 186.50 L 219.80 184.40 L 224.90 183.60 L 230.00 184.40 L 234.60 186.50 L 237.20 188.60 L 239.50 191.10 L 241.50 194.10 L 242.90 197.30 L 243.80 200.80 L 244.10 204.70 L 244.10 230.00 Z" fill="#ffffff" fill-rule="nonzero" group-id="2,11" node-id="318" stroke="none" target-height="67.399994" target-width="38.40001" target-x="205.7" target-y="183.6"></path></g><g node-id="774"><path d="M 208.30 236.10 L 208.30 210.80 L 208.70 206.90 L 209.50 203.40 L 211.00 200.20 L 212.90 197.20 L 215.20 194.70 L 217.90 192.60 L 220.10 191.40 L 224.90 189.90 L 227.50 189.70 L 230.60 190.00 L 233.50 190.80 L 236.20 192.00 L 238.60 193.60 L 240.80 195.60 L 242.80 198.00 L 240.40 192.90 L 236.80 188.80 L 232.50 185.80 L 230.00 184.90 L 227.40 184.20 L 224.70 184.00 L 222.10 184.20 L 217.20 185.70 L 215.00 186.90 L 212.30 189.00 L 210.00 191.50 L 208.10 194.50 L 206.70 197.70 L 205.80 201.20 L 205.50 205.10 L 205.50 230.40 L 205.80 233.90 L 206.50 237.20 L 207.80 240.30 L 209.50 243.10 L 208.60 239.70 L 208.30 236.10 Z" fill="#f5f5f5" fill-opacity="0.3" fill-rule="nonzero" group-id="2,12" node-id="323" stroke="none" target-height="59.100006" target-width="37.300003" target-x="205.5" target-y="184"></path></g><g node-id="775"><path d="M 224.90 252.50 L 222.00 252.30 L 216.80 250.80 L 214.40 249.40 L 211.60 247.20 L 209.10 244.50 L 207.00 241.30 L 205.80 238.80 L 204.40 233.10 L 204.20 230.00 L 204.20 204.70 L 204.40 201.60 L 205.80 195.90 L 207.00 193.30 L 209.10 190.10 L 211.60 187.40 L 214.40 185.20 L 216.80 183.90 L 222.00 182.30 L 224.90 182.10 L 230.40 182.90 L 235.30 185.20 L 238.20 187.40 L 240.70 190.10 L 242.80 193.30 L 244.00 195.90 L 245.40 201.60 L 245.60 204.70 L 245.60 230.00 L 245.40 233.10 L 244.00 238.70 L 242.80 241.30 L 240.70 244.50 L 238.20 247.20 L 235.30 249.40 L 230.40 251.70 L 224.90 252.50 Z M 224.90 185.10 L 221.70 185.50 L 218.70 186.30 L 216.00 187.80 L 213.50 189.70 L 211.40 192.10 L 209.60 194.80 L 208.30 197.80 L 207.50 201.10 L 207.20 204.70 L 207.20 230.00 L 207.50 233.50 L 208.30 236.80 L 209.60 239.80 L 211.40 242.60 L 213.50 244.90 L 216.00 246.80 L 218.70 248.30 L 221.70 249.20 L 224.90 249.50 L 228.10 249.20 L 231.10 248.30 L 233.80 246.80 L 236.30 244.90 L 238.40 242.60 L 240.20 239.80 L 241.50 236.80 L 242.30 233.50 L 242.60 230.00 L 242.60 204.70 L 242.30 201.10 L 241.50 197.80 L 240.20 194.80 L 238.40 192.10 L 236.30 189.70 L 233.80 187.80 L 231.10 186.30 L 228.10 185.50 L 224.90 185.10 Z" fill="#6e6e96" fill-rule="nonzero" group-id="2,13" node-id="328" stroke="none" target-height="70.399994" target-width="41.40001" target-x="204.2" target-y="182.1"></path></g><g node-id="776"><path d="M 235.80 187.40 L 237.70 190.30 L 239.20 193.60 L 240.10 197.20 L 240.40 201.00 L 240.40 226.30 L 240.10 230.10 L 239.20 233.60 L 237.80 236.90 L 235.80 239.80 L 233.50 242.30 L 230.90 244.40 L 228.60 245.70 L 223.80 247.10 L 221.20 247.30 L 218.20 247.10 L 215.30 246.30 L 212.70 245.10 L 210.20 243.50 L 212.20 245.70 L 214.30 247.50 L 216.70 249.00 L 219.30 250.10 L 222.00 250.80 L 224.90 251.00 L 230.00 250.30 L 234.60 248.10 L 237.20 246.10 L 239.50 243.50 L 241.50 240.60 L 242.90 237.30 L 243.80 233.80 L 244.10 230.00 L 244.10 204.70 L 243.80 201.10 L 243.10 197.90 L 241.80 194.80 L 240.20 192.00 L 238.20 189.50 L 235.80 187.40 Z" fill="#6e6e96" fill-opacity="0.25" fill-rule="nonzero" group-id="2,14" node-id="333" stroke="none" target-height="63.600006" target-width="33.90001" target-x="210.2" target-y="187.4"></path></g><path d="M 224.50 199.90 L 223.40 199.50 L 223.00 198.40 L 223.00 184.50 L 223.10 183.90 L 223.90 183.10 L 225.10 183.10 L 225.90 183.90 L 226.00 184.50 L 226.00 198.40 L 225.60 199.50 L 224.50 199.90 Z" fill="#6e6e96" fill-rule="nonzero" group-id="2" node-id="336" stroke="none" target-height="16.799988" target-width="3" target-x="223" target-y="183.1"></path></g><g node-id="765"><g node-id="777"><path d="M 181.50 198.70 L 181.20 200.30 L 180.30 201.60 L 178.90 202.50 L 177.30 202.90 L 29.30 202.90 L 27.70 202.50 L 26.40 201.60 L 25.50 200.30 L 25.10 198.70 L 25.10 113.50 L 25.50 111.80 L 26.40 110.50 L 27.70 109.60 L 29.30 109.30 L 177.30 109.30 L 178.90 109.60 L 180.30 110.50 L 181.20 111.80 L 181.50 113.50 L 181.50 198.70 Z" fill="#d5d7e0" fill-rule="nonzero" group-id="3,15" node-id="343" stroke="none" target-height="93.59999" target-width="156.4" target-x="25.1" target-y="109.3"></path></g><g node-id="778"><path d="M 176.90 108.80 L 28.90 108.80 L 27.30 109.10 L 26.00 110.00 L 25.10 111.30 L 24.70 113.00 L 24.70 118.00 L 25.10 116.40 L 26.00 115.00 L 27.30 114.10 L 28.90 113.80 L 176.90 113.80 L 178.50 114.10 L 179.80 115.00 L 180.70 116.40 L 181.10 118.00 L 181.10 113.00 L 180.70 111.30 L 179.80 110.00 L 178.50 109.10 L 176.90 108.80 Z" fill="#ffffff" fill-opacity="0.45" fill-rule="nonzero" group-id="3,16" node-id="348" stroke="none" target-height="9.199997" target-width="156.40001" target-x="24.7" target-y="108.8"></path></g><g node-id="779"><path d="M 121.70 190.60 L 120.90 192.40 L 119.20 193.10 L 84.70 193.10 L 82.90 192.40 L 82.20 190.60 L 82.20 178.00 L 82.90 176.20 L 84.70 175.50 L 120.20 175.70 L 121.50 177.00 L 121.70 178.00 L 121.70 190.60 Z" fill="#f0f0f0" fill-rule="nonzero" group-id="3,17" node-id="353" stroke="none" target-height="17.600006" target-width="39.5" target-x="82.2" target-y="175.5"></path><path d="M 119.20 194.60 L 84.70 194.60 L 83.20 194.30 L 81.90 193.50 L 81.00 192.20 L 80.70 190.60 L 80.70 178.00 L 81.00 176.40 L 81.90 175.20 L 83.20 174.30 L 84.70 174.00 L 119.20 174.00 L 120.70 174.30 L 122.00 175.20 L 122.90 176.40 L 123.20 178.00 L 123.20 190.60 L 122.90 192.20 L 122.00 193.50 L 120.70 194.30 L 119.20 194.60 Z M 84.70 177.00 L 84.00 177.30 L 83.70 178.00 L 83.70 190.60 L 84.00 191.30 L 84.70 191.60 L 119.20 191.60 L 119.90 191.30 L 120.20 190.60 L 120.20 178.00 L 119.90 177.30 L 119.20 177.00 L 84.70 177.00 Z" fill="#6e6e96" fill-rule="nonzero" group-id="3,17" node-id="355" stroke="none" target-height="20.600006" target-width="42.5" target-x="80.7" target-y="174"></path><path d="M 82.20 185.70 L 121.70 185.70 L 121.70 188.70 L 82.20 188.70 Z" fill="#6e6e96" fill-rule="nonzero" group-id="3,17" node-id="357" stroke="none" target-height="3" target-width="39.5" target-x="82.2" target-y="185.7"></path><path d="M 100.40 187.20 L 103.40 187.20 L 103.40 193.10 L 100.40 193.10 Z" fill="#6e6e96" fill-rule="nonzero" group-id="3,17" node-id="359" stroke="none" target-height="5.900009" target-width="3" target-x="100.4" target-y="187.2"></path></g><g node-id="780"><path d="M 177.30 204.40 L 29.30 204.40 L 26.50 203.60 L 24.40 201.50 L 23.60 198.70 L 23.60 113.50 L 24.40 110.60 L 26.50 108.50 L 27.80 108.00 L 29.30 107.80 L 177.30 107.80 L 180.20 108.50 L 182.20 110.60 L 183.00 113.50 L 183.00 198.70 L 182.80 200.20 L 181.30 202.70 L 178.80 204.10 L 177.30 204.40 Z M 29.30 110.80 L 28.30 111.00 L 27.40 111.60 L 26.90 112.40 L 26.60 113.50 L 26.60 198.70 L 26.90 199.70 L 27.40 200.60 L 28.30 201.20 L 29.30 201.40 L 177.30 201.40 L 178.40 201.20 L 179.20 200.60 L 179.80 199.70 L 180.00 198.70 L 180.00 113.50 L 179.80 112.40 L 178.40 111.00 L 177.30 110.80 L 29.30 110.80 Z" fill="#6e6e96" fill-rule="nonzero" group-id="3,18" node-id="364" stroke="none" target-height="96.59999" target-width="159.4" target-x="23.6" target-y="107.8"></path></g><g node-id="781"><path d="M 183.40 100.60 L 183.30 101.80 L 182.10 103.80 L 180.10 105.00 L 178.90 105.10 L 28.00 105.10 L 26.80 105.00 L 24.80 103.80 L 23.60 101.80 L 23.50 100.60 L 23.50 7.80 L 23.60 6.50 L 24.80 4.60 L 26.80 3.40 L 28.00 3.20 L 178.90 3.20 L 181.20 3.80 L 182.80 5.50 L 183.40 7.80 L 183.40 100.60 Z" fill="#d0d2db" fill-rule="nonzero" group-id="3,19" node-id="369" stroke="none" target-height="101.9" target-width="159.9" target-x="23.5" target-y="3.2"></path></g><path d="M 32.50 12.60 L 174.20 12.60 L 174.20 93.10 L 32.50 93.10 Z" fill="#ffffff" fill-rule="nonzero" group-id="3" node-id="372" stroke="none" target-height="80.5" target-width="141.7" target-x="32.5" target-y="12.6"></path><g node-id="782"><path d="M 178.90 4.10 L 28.00 4.10 L 25.70 4.70 L 24.10 6.40 L 23.50 8.70 L 23.50 11.70 L 23.60 10.50 L 24.80 8.50 L 26.80 7.30 L 28.00 7.20 L 178.90 7.20 L 180.10 7.30 L 182.10 8.50 L 183.30 10.50 L 183.40 11.70 L 183.40 8.70 L 182.80 6.40 L 181.20 4.70 L 178.90 4.10 Z" fill="#f2f5ff" fill-opacity="0.57" fill-rule="nonzero" group-id="3,20" node-id="376" stroke="none" target-height="7.6" target-width="159.9" target-x="23.5" target-y="4.1"></path></g><g node-id="783"><path d="M 178.90 106.60 L 28.00 106.60 L 26.40 106.40 L 25.00 105.80 L 22.80 103.60 L 22.20 102.20 L 22.00 100.60 L 22.00 7.80 L 22.20 6.10 L 22.80 4.70 L 23.70 3.50 L 25.00 2.50 L 26.40 2.00 L 28.00 1.70 L 178.90 1.70 L 180.50 2.00 L 181.90 2.50 L 184.10 4.70 L 184.70 6.10 L 184.90 7.80 L 184.90 100.60 L 184.70 102.20 L 184.10 103.60 L 183.20 104.90 L 181.90 105.80 L 180.50 106.40 L 178.90 106.60 Z M 28.00 4.70 L 26.80 5.00 L 25.90 5.60 L 25.20 6.60 L 25.00 7.80 L 25.00 100.60 L 25.20 101.80 L 25.90 102.70 L 26.80 103.40 L 28.00 103.60 L 178.90 103.60 L 180.10 103.40 L 181.00 102.70 L 181.70 101.80 L 181.90 100.60 L 181.90 7.80 L 181.70 6.60 L 181.00 5.60 L 180.10 5.00 L 178.90 4.70 L 28.00 4.70 Z" fill="#6e6e96" fill-rule="nonzero" group-id="3,21" node-id="381" stroke="none" target-height="104.9" target-width="162.9" target-x="22" target-y="1.7"></path></g><g node-id="784"><path d="M 177.30 197.60 L 29.30 197.60 L 27.70 197.30 L 26.40 196.40 L 25.50 195.10 L 25.10 193.40 L 25.10 199.60 L 25.50 201.20 L 26.40 202.50 L 27.70 203.40 L 29.30 203.80 L 177.30 203.80 L 178.90 203.40 L 180.30 202.50 L 181.20 201.20 L 181.50 199.60 L 181.50 193.40 L 181.20 195.10 L 180.30 196.40 L 178.90 197.30 L 177.30 197.60 Z" fill="#6e6e96" fill-opacity="0.15" fill-rule="nonzero" group-id="3,22" node-id="386" stroke="none" target-height="10.400009" target-width="156.4" target-x="25.1" target-y="193.4"></path></g><g node-id="785"><path d="M 32.50 12.60 L 174.20 12.60 L 174.20 18.40 L 32.50 18.40 Z" fill="#6e6e96" fill-opacity="0.15" fill-rule="nonzero" group-id="3,23" node-id="391" stroke="none" target-height="5.799999" target-width="141.7" target-x="32.5" target-y="12.6"></path></g><g node-id="786"><path d="M 174.20 18.40 L 105.00 93.10 L 174.30 93.10 Z" fill="#ffffff" fill-opacity="0.25" fill-rule="nonzero" group-id="3,24" node-id="396" stroke="none" target-height="74.7" target-width="69.3" target-x="105" target-y="18.4"></path></g><g node-id="787"><path d="M 126.90 93.10 L 174.30 40.30 L 174.30 93.10 Z" fill="#ffffff" fill-opacity="0.25" fill-rule="nonzero" group-id="3,25" node-id="401" stroke="none" target-height="52.8" target-width="47.4" target-x="126.9" target-y="40.3"></path></g><g node-id="788"><path d="M 83.30 93.10 L 152.50 18.40 L 142.40 18.40 L 73.10 93.10 Z" fill="#ffffff" fill-opacity="0.25" fill-rule="nonzero" group-id="3,26" node-id="406" stroke="none" target-height="74.7" target-width="79.4" target-x="73.1" target-y="18.4"></path></g><path d="M 174.20 94.60 L 32.00 94.40 L 31.20 93.70 L 31.00 93.10 L 31.00 12.60 L 31.20 12.00 L 32.00 11.20 L 174.80 11.20 L 175.60 12.00 L 175.70 12.60 L 175.70 93.10 L 175.30 94.10 L 174.20 94.60 Z M 34.00 91.60 L 172.70 91.60 L 172.70 14.10 L 34.00 14.10 L 34.00 91.60 Z" fill="#6e6e96" fill-rule="nonzero" group-id="3" node-id="409" stroke="none" target-height="83.4" target-width="144.7" target-x="31" target-y="11.2"></path><path d="M 114.00 8.70 L 94.40 8.50 L 93.60 7.70 L 93.50 7.20 L 93.50 3.20 L 93.60 2.60 L 94.40 1.80 L 114.60 1.80 L 115.40 2.60 L 115.50 3.20 L 115.50 7.20 L 115.10 8.20 L 114.00 8.70 Z M 96.50 5.70 L 112.50 5.70 L 112.50 4.70 L 96.50 4.70 L 96.50 5.70 Z" fill="#6e6e96" fill-rule="nonzero" group-id="3" node-id="411" stroke="none" target-height="6.8999996" target-width="22" target-x="93.5" target-y="1.8"></path><g node-id="789"><path d="M 36.10 103.80 L 55.10 103.80 L 55.10 111.00 L 36.10 111.00 Z" fill="#dadce6" fill-rule="nonzero" group-id="3,27" node-id="415" stroke="none" target-height="7.199997" target-width="19" target-x="36.1" target-y="103.8"></path><path d="M 55.10 112.50 L 35.60 112.40 L 34.80 111.60 L 34.60 111.00 L 34.60 103.80 L 34.80 103.20 L 35.60 102.40 L 55.70 102.40 L 56.50 103.20 L 56.60 103.80 L 56.60 111.00 L 56.20 112.00 L 55.10 112.50 Z M 37.60 109.50 L 53.60 109.50 L 53.60 105.30 L 37.60 105.30 L 37.60 109.50 Z" fill="#6e6e96" fill-rule="nonzero" group-id="3,27" node-id="417" stroke="none" target-height="10.099998" target-width="22" target-x="34.6" target-y="102.4"></path></g><g node-id="790"><path d="M 149.90 103.80 L 169.40 103.80 L 169.40 111.00 L 149.90 111.00 Z" fill="#dadce6" fill-rule="nonzero" group-id="3,28" node-id="422" stroke="none" target-height="7.199997" target-width="19.5" target-x="149.9" target-y="103.8"></path><path d="M 169.40 112.50 L 149.30 112.40 L 148.50 111.60 L 148.40 111.00 L 148.40 103.80 L 148.50 103.20 L 149.30 102.40 L 170.00 102.40 L 170.80 103.20 L 170.90 103.80 L 170.90 111.00 L 170.50 112.00 L 169.40 112.50 Z M 151.40 109.50 L 167.90 109.50 L 167.90 105.30 L 151.40 105.30 L 151.40 109.50 Z" fill="#6e6e96" fill-rule="nonzero" group-id="3,28" node-id="424" stroke="none" target-height="10.099998" target-width="22.5" target-x="148.4" target-y="102.4"></path></g><g node-id="791"><path d="M 36.10 107.80 L 53.30 107.80 L 53.30 111.00 L 36.10 111.00 Z" fill="#6e6e96" fill-opacity="0.15" fill-rule="nonzero" group-id="3,29" node-id="429" stroke="none" target-height="3.199997" target-width="17.2" target-x="36.1" target-y="107.8"></path></g><g node-id="792"><path d="M 149.90 107.80 L 169.40 107.80 L 169.40 111.00 L 149.90 111.00 Z" fill="#6e6e96" fill-opacity="0.15" fill-rule="nonzero" group-id="3,30" node-id="434" stroke="none" target-height="3.199997" target-width="19.5" target-x="149.9" target-y="107.8"></path></g><g node-id="793"><path d="M 82.20 187.50 L 121.70 187.50 L 121.70 190.50 L 82.20 190.50 Z" fill="#6e6e96" fill-opacity="0.15" fill-rule="nonzero" group-id="3,31" node-id="439" stroke="none" target-height="3" target-width="39.5" target-x="82.2" target-y="187.5"></path></g><g node-id="794"><path d="M 82.20 176.50 L 121.70 176.50 L 121.70 179.50 L 82.20 179.50 Z" fill="#6e6e96" fill-opacity="0.15" fill-rule="nonzero" group-id="3,32" node-id="444" stroke="none" target-height="3" target-width="39.5" target-x="82.2" target-y="176.5"></path></g><g node-id="795"><g node-id="820"><path d="M 74.50 136.50 L 74.50 132.10 L 74.40 131.50 L 73.40 130.60 L 67.10 130.50 L 66.30 130.60 L 65.40 131.50 L 65.20 136.50 L 65.40 137.10 L 66.30 138.00 L 73.40 138.00 L 74.40 137.10 L 74.50 136.50 Z" fill="#6e6e96" fill-opacity="0.31350002" fill-rule="nonzero" group-id="3,33,58" node-id="451" stroke="none" target-height="7.5" target-width="9.300003" target-x="65.2" target-y="130.5"></path></g><g node-id="821"><path d="M 62.10 136.50 L 62.10 132.10 L 61.90 131.50 L 60.90 130.60 L 54.60 130.50 L 53.90 130.60 L 52.90 131.50 L 52.70 136.50 L 52.90 137.10 L 53.90 138.00 L 60.90 138.00 L 61.90 137.10 L 62.10 136.50 Z" fill="#6e6e96" fill-opacity="0.31350002" fill-rule="nonzero" group-id="3,33,59" node-id="456" stroke="none" target-height="7.5" target-width="9.399998" target-x="52.7" target-y="130.5"></path></g><g node-id="822"><path d="M 85.10 138.10 L 86.50 137.70 L 87.00 136.50 L 86.90 131.50 L 85.90 130.60 L 85.10 130.50 L 78.80 130.60 L 77.80 131.50 L 77.70 132.10 L 77.70 136.50 L 78.20 137.70 L 79.60 138.10 L 85.10 138.10 Z" fill="#6e6e96" fill-opacity="0.31350002" fill-rule="nonzero" group-id="3,33,60" node-id="461" stroke="none" target-height="7.600006" target-width="9.300003" target-x="77.7" target-y="130.5"></path></g><g node-id="823"><path d="M 122.60 138.10 L 123.90 137.70 L 124.50 136.50 L 124.30 131.50 L 123.30 130.60 L 122.60 130.50 L 116.30 130.60 L 115.30 131.50 L 115.10 132.10 L 115.10 136.50 L 115.70 137.70 L 117.00 138.10 L 122.60 138.10 Z" fill="#6e6e96" fill-opacity="0.31350002" fill-rule="nonzero" group-id="3,33,61" node-id="466" stroke="none" target-height="7.600006" target-width="9.400002" target-x="115.1" target-y="130.5"></path></g><g node-id="824"><path d="M 97.60 138.10 L 99.00 137.70 L 99.50 136.50 L 99.40 131.50 L 98.40 130.60 L 97.60 130.50 L 91.30 130.60 L 90.30 131.50 L 90.20 132.10 L 90.20 136.50 L 90.70 137.70 L 92.10 138.10 L 97.60 138.10 Z" fill="#6e6e96" fill-opacity="0.31350002" fill-rule="nonzero" group-id="3,33,62" node-id="471" stroke="none" target-height="7.600006" target-width="9.300003" target-x="90.2" target-y="130.5"></path></g><g node-id="825"><path d="M 104.50 138.10 L 110.10 138.10 L 111.40 137.70 L 112.00 136.50 L 112.00 132.10 L 111.80 131.50 L 110.80 130.60 L 104.50 130.50 L 103.20 131.00 L 102.70 132.10 L 102.70 136.50 L 103.20 137.70 L 104.50 138.10 Z" fill="#6e6e96" fill-opacity="0.31350002" fill-rule="nonzero" group-id="3,33,63" node-id="476" stroke="none" target-height="7.600006" target-width="9.300003" target-x="102.7" target-y="130.5"></path></g><g node-id="826"><path d="M 135.10 138.10 L 136.40 137.70 L 137.00 136.50 L 136.80 131.50 L 135.80 130.60 L 135.10 130.50 L 128.80 130.60 L 127.80 131.50 L 127.60 132.10 L 127.60 136.50 L 128.20 137.70 L 129.50 138.10 L 135.10 138.10 Z" fill="#6e6e96" fill-opacity="0.31350002" fill-rule="nonzero" group-id="3,33,64" node-id="481" stroke="none" target-height="7.600006" target-width="9.400002" target-x="127.6" target-y="130.5"></path></g><g node-id="827"><path d="M 140.10 132.10 L 140.10 136.50 L 140.30 137.10 L 141.30 138.00 L 148.30 138.00 L 149.30 137.10 L 149.40 136.50 L 149.40 132.10 L 149.30 131.50 L 148.30 130.60 L 141.30 130.60 L 140.30 131.50 L 140.10 132.10 Z" fill="#6e6e96" fill-opacity="0.31350002" fill-rule="nonzero" group-id="3,33,65" node-id="486" stroke="none" target-height="7.399994" target-width="9.299988" target-x="140.1" target-y="130.6"></path></g><g node-id="828"><path d="M 42.10 138.10 L 47.70 138.10 L 49.00 137.70 L 49.60 136.50 L 49.60 132.10 L 49.40 131.50 L 48.40 130.60 L 42.10 130.50 L 40.80 131.00 L 40.20 132.10 L 40.20 136.50 L 40.80 137.70 L 42.10 138.10 Z" fill="#6e6e96" fill-opacity="0.31350002" fill-rule="nonzero" group-id="3,33,66" node-id="491" stroke="none" target-height="7.600006" target-width="9.399998" target-x="40.2" target-y="130.5"></path></g><g node-id="829"><path d="M 164.80 130.50 L 154.50 130.50 L 153.10 131.00 L 152.60 132.10 L 152.60 136.50 L 152.70 137.10 L 153.70 138.00 L 164.80 138.10 L 166.10 137.70 L 166.70 136.50 L 166.70 132.10 L 166.10 131.00 L 164.80 130.50 Z" fill="#6e6e96" fill-opacity="0.31350002" fill-rule="nonzero" group-id="3,33,67" node-id="496" stroke="none" target-height="7.600006" target-width="14.099991" target-x="152.6" target-y="130.5"></path></g><g node-id="830"><path d="M 126.10 145.90 L 126.10 141.50 L 125.90 140.90 L 124.90 140.00 L 119.10 139.90 L 118.30 140.00 L 117.30 140.90 L 117.20 145.90 L 117.30 146.50 L 118.30 147.40 L 124.90 147.40 L 125.90 146.50 L 126.10 145.90 Z" fill="#6e6e96" fill-opacity="0.31350002" fill-rule="nonzero" group-id="3,33,68" node-id="501" stroke="none" target-height="7.5" target-width="8.900002" target-x="117.2" target-y="139.9"></path></g><g node-id="831"><path d="M 103.30 145.90 L 103.30 141.50 L 103.20 140.90 L 102.20 140.00 L 95.60 140.00 L 94.60 140.90 L 94.50 141.50 L 94.50 145.90 L 94.60 146.50 L 95.60 147.40 L 102.20 147.40 L 103.20 146.50 L 103.30 145.90 Z" fill="#6e6e96" fill-opacity="0.31350002" fill-rule="nonzero" group-id="3,33,69" node-id="506" stroke="none" target-height="7.399994" target-width="8.800003" target-x="94.5" target-y="140"></path></g><g node-id="832"><path d="M 114.70 145.90 L 114.70 141.50 L 114.60 140.90 L 113.60 140.00 L 107.00 140.00 L 106.00 140.90 L 105.80 141.50 L 105.80 145.90 L 106.00 146.50 L 107.00 147.40 L 113.60 147.40 L 114.60 146.50 L 114.70 145.90 Z" fill="#6e6e96" fill-opacity="0.31350002" fill-rule="nonzero" group-id="3,33,70" node-id="511" stroke="none" target-height="7.399994" target-width="8.899994" target-x="105.8" target-y="140"></path></g><g node-id="833"><path d="M 148.80 145.90 L 148.80 141.50 L 148.60 140.90 L 147.60 140.00 L 141.80 139.90 L 141.10 140.00 L 140.10 140.90 L 139.90 145.90 L 140.10 146.50 L 141.10 147.40 L 147.60 147.40 L 148.60 146.50 L 148.80 145.90 Z" fill="#6e6e96" fill-opacity="0.31350002" fill-rule="nonzero" group-id="3,33,71" node-id="516" stroke="none" target-height="7.5" target-width="8.900009" target-x="139.9" target-y="139.9"></path></g><g node-id="834"><path d="M 62.30 147.50 L 67.40 147.50 L 68.10 147.40 L 69.10 146.50 L 69.30 141.50 L 69.10 140.90 L 68.10 140.00 L 62.30 139.90 L 61.50 140.00 L 60.50 140.90 L 60.50 146.50 L 61.50 147.40 L 62.30 147.50 Z" fill="#6e6e96" fill-opacity="0.31350002" fill-rule="nonzero" group-id="3,33,72" node-id="521" stroke="none" target-height="7.600006" target-width="8.800003" target-x="60.5" target-y="139.9"></path></g><g node-id="835"><path d="M 73.60 147.50 L 78.70 147.50 L 79.50 147.40 L 80.50 146.50 L 80.60 141.50 L 80.50 140.90 L 79.50 140.00 L 73.60 139.90 L 72.90 140.00 L 71.90 140.90 L 71.90 146.50 L 72.90 147.40 L 73.60 147.50 Z" fill="#6e6e96" fill-opacity="0.31350002" fill-rule="nonzero" group-id="3,33,73" node-id="526" stroke="none" target-height="7.600006" target-width="8.699997" target-x="71.9" target-y="139.9"></path></g><g node-id="836"><path d="M 130.40 147.50 L 135.50 147.50 L 136.30 147.40 L 137.30 146.50 L 137.40 141.50 L 137.30 140.90 L 136.30 140.00 L 130.40 139.90 L 129.70 140.00 L 128.70 140.90 L 128.70 146.50 L 129.70 147.40 L 130.40 147.50 Z" fill="#6e6e96" fill-opacity="0.31350002" fill-rule="nonzero" group-id="3,33,74" node-id="531" stroke="none" target-height="7.600006" target-width="8.699997" target-x="128.7" target-y="139.9"></path></g><g node-id="837"><path d="M 92.00 145.90 L 92.00 141.50 L 91.80 140.90 L 90.80 140.00 L 85.00 139.90 L 84.30 140.00 L 83.30 140.90 L 83.10 145.90 L 83.30 146.50 L 84.30 147.40 L 90.80 147.40 L 91.80 146.50 L 92.00 145.90 Z" fill="#6e6e96" fill-opacity="0.31350002" fill-rule="nonzero" group-id="3,33,75" node-id="536" stroke="none" target-height="7.5" target-width="8.900002" target-x="83.1" target-y="139.9"></path></g><g node-id="838"><path d="M 40.20 145.90 L 40.80 147.10 L 42.10 147.50 L 56.60 147.40 L 57.60 146.50 L 57.80 145.90 L 57.80 141.50 L 57.20 140.40 L 55.90 139.90 L 41.40 140.00 L 40.40 140.90 L 40.20 141.50 L 40.20 145.90 Z" fill="#6e6e96" fill-opacity="0.31350002" fill-rule="nonzero" group-id="3,33,76" node-id="541" stroke="none" target-height="7.600006" target-width="17.599998" target-x="40.2" target-y="139.9"></path></g><g node-id="839"><path d="M 164.80 139.90 L 153.20 139.90 L 151.90 140.40 L 151.30 141.50 L 151.30 145.90 L 151.90 147.10 L 153.20 147.50 L 164.80 147.50 L 166.10 147.10 L 166.70 145.90 L 166.70 141.50 L 166.10 140.40 L 164.80 139.90 Z" fill="#6e6e96" fill-opacity="0.31350002" fill-rule="nonzero" group-id="3,33,77" node-id="546" stroke="none" target-height="7.600006" target-width="15.399994" target-x="151.3" target-y="139.9"></path></g><g node-id="840"><path d="M 73.70 149.60 L 68.60 149.60 L 67.80 149.70 L 66.80 150.60 L 66.80 156.30 L 67.80 157.10 L 68.60 157.30 L 73.70 157.30 L 74.40 157.10 L 75.40 156.30 L 75.40 150.60 L 74.40 149.70 L 73.70 149.60 Z" fill="#6e6e96" fill-opacity="0.31350002" fill-rule="nonzero" group-id="3,33,78" node-id="551" stroke="none" target-height="7.699997" target-width="8.599998" target-x="66.8" target-y="149.6"></path></g><g node-id="841"><path d="M 79.90 157.30 L 85.00 157.30 L 85.80 157.10 L 86.80 156.30 L 86.90 151.20 L 86.80 150.60 L 85.80 149.70 L 79.90 149.60 L 79.20 149.70 L 78.20 150.60 L 78.20 156.30 L 79.20 157.10 L 79.90 157.30 Z" fill="#6e6e96" fill-opacity="0.31350002" fill-rule="nonzero" group-id="3,33,79" node-id="556" stroke="none" target-height="7.699997" target-width="8.700005" target-x="78.2" target-y="149.6"></path></g><g node-id="842"><path d="M 136.80 157.30 L 141.90 157.30 L 142.60 157.10 L 143.60 156.30 L 143.70 151.20 L 143.60 150.60 L 142.60 149.70 L 136.80 149.60 L 136.00 149.70 L 135.00 150.60 L 135.00 156.30 L 136.00 157.10 L 136.80 157.30 Z" fill="#6e6e96" fill-opacity="0.31350002" fill-rule="nonzero" group-id="3,33,80" node-id="561" stroke="none" target-height="7.699997" target-width="8.699997" target-x="135" target-y="149.6"></path></g><g node-id="843"><path d="M 91.30 157.30 L 96.40 157.30 L 97.10 157.10 L 98.10 156.30 L 98.30 151.20 L 98.10 150.60 L 97.10 149.70 L 91.30 149.60 L 90.60 149.70 L 89.60 150.60 L 89.60 156.30 L 90.60 157.10 L 91.30 157.30 Z" fill="#6e6e96" fill-opacity="0.31350002" fill-rule="nonzero" group-id="3,33,81" node-id="566" stroke="none" target-height="7.699997" target-width="8.700005" target-x="89.6" target-y="149.6"></path></g><g node-id="844"><path d="M 132.40 155.70 L 132.40 151.20 L 132.20 150.60 L 131.20 149.70 L 125.40 149.60 L 124.70 149.70 L 123.70 150.60 L 123.50 155.70 L 123.70 156.30 L 124.70 157.10 L 131.20 157.10 L 132.20 156.30 L 132.40 155.70 Z" fill="#6e6e96" fill-opacity="0.31350002" fill-rule="nonzero" group-id="3,33,82" node-id="571" stroke="none" target-height="7.5" target-width="8.899994" target-x="123.5" target-y="149.6"></path></g><g node-id="845"><path d="M 114.00 157.30 L 119.10 157.30 L 119.90 157.10 L 120.90 156.30 L 121.00 151.20 L 120.90 150.60 L 119.90 149.70 L 114.00 149.60 L 113.30 149.70 L 112.30 150.60 L 112.30 156.30 L 113.30 157.10 L 114.00 157.30 Z" fill="#6e6e96" fill-opacity="0.31350002" fill-rule="nonzero" group-id="3,33,83" node-id="576" stroke="none" target-height="7.699997" target-width="8.699997" target-x="112.3" target-y="149.6"></path></g><g node-id="846"><path d="M 102.70 157.30 L 107.80 157.30 L 108.50 157.10 L 109.50 156.30 L 109.70 151.20 L 109.50 150.60 L 108.50 149.70 L 102.70 149.60 L 101.90 149.70 L 100.90 150.60 L 100.90 156.30 L 101.90 157.10 L 102.70 157.30 Z" fill="#6e6e96" fill-opacity="0.31350002" fill-rule="nonzero" group-id="3,33,84" node-id="581" stroke="none" target-height="7.699997" target-width="8.799995" target-x="100.9" target-y="149.6"></path></g><g node-id="847"><path d="M 64.40 151.20 L 63.80 150.10 L 62.50 149.60 L 42.10 149.60 L 40.80 150.10 L 40.20 151.20 L 40.40 156.30 L 41.40 157.10 L 42.10 157.30 L 63.30 157.10 L 64.30 156.30 L 64.40 155.60 L 64.40 151.20 Z" fill="#6e6e96" fill-opacity="0.31350002" fill-rule="nonzero" group-id="3,33,85" node-id="586" stroke="none" target-height="7.699997" target-width="24.2" target-x="40.2" target-y="149.6"></path></g><g node-id="848"><path d="M 164.80 149.60 L 147.60 149.70 L 146.60 150.60 L 146.40 151.20 L 146.40 155.70 L 147.00 156.80 L 148.30 157.30 L 165.50 157.10 L 166.50 156.30 L 166.70 155.70 L 166.70 151.20 L 166.10 150.10 L 164.80 149.60 Z" fill="#6e6e96" fill-opacity="0.31350002" fill-rule="nonzero" group-id="3,33,86" node-id="591" stroke="none" target-height="7.699997" target-width="20.300003" target-x="146.4" target-y="149.6"></path></g><g node-id="849"><path d="M 47.70 159.90 L 42.10 159.90 L 41.40 160.10 L 40.40 160.90 L 40.40 166.60 L 41.40 167.50 L 42.10 167.60 L 47.70 167.60 L 48.40 167.50 L 49.40 166.60 L 49.40 160.90 L 48.40 160.10 L 47.70 159.90 Z" fill="#6e6e96" fill-opacity="0.31350002" fill-rule="nonzero" group-id="3,33,87" node-id="596" stroke="none" target-height="7.700012" target-width="9" target-x="40.4" target-y="159.9"></path></g><g node-id="850"><path d="M 59.90 159.90 L 54.30 159.90 L 53.60 160.10 L 52.60 160.90 L 52.60 166.60 L 53.60 167.50 L 54.30 167.60 L 59.90 167.60 L 60.60 167.50 L 61.60 166.60 L 61.60 160.90 L 60.60 160.10 L 59.90 159.90 Z" fill="#6e6e96" fill-opacity="0.31350002" fill-rule="nonzero" group-id="3,33,88" node-id="601" stroke="none" target-height="7.700012" target-width="9" target-x="52.6" target-y="159.9"></path></g><g node-id="851"><path d="M 71.70 159.90 L 66.10 159.90 L 65.40 160.10 L 64.40 160.90 L 64.40 166.60 L 65.40 167.50 L 66.10 167.60 L 71.70 167.60 L 72.40 167.50 L 73.40 166.60 L 73.40 160.90 L 72.40 160.10 L 71.70 159.90 Z" fill="#6e6e96" fill-opacity="0.31350002" fill-rule="nonzero" group-id="3,33,89" node-id="606" stroke="none" target-height="7.700012" target-width="9" target-x="64.4" target-y="159.9"></path></g><g node-id="852"><path d="M 122.80 159.90 L 78.40 159.90 L 77.00 160.40 L 76.50 161.60 L 76.60 166.60 L 77.60 167.50 L 78.40 167.60 L 122.80 167.60 L 124.10 167.10 L 124.70 166.00 L 124.50 160.90 L 123.60 160.10 L 122.80 159.90 Z" fill="#6e6e96" fill-opacity="0.31350002" fill-rule="nonzero" group-id="3,33,90" node-id="611" stroke="none" target-height="7.700012" target-width="48.199997" target-x="76.5" target-y="159.9"></path></g><g node-id="853"><path d="M 136.20 159.90 L 129.20 159.90 L 127.90 160.40 L 127.30 161.60 L 127.30 166.00 L 127.90 167.10 L 129.20 167.60 L 136.20 167.60 L 137.50 167.10 L 138.10 166.00 L 138.10 161.60 L 137.50 160.40 L 136.20 159.90 Z" fill="#6e6e96" fill-opacity="0.31350002" fill-rule="nonzero" group-id="3,33,91" node-id="616" stroke="none" target-height="7.700012" target-width="10.800003" target-x="127.3" target-y="159.9"></path></g><g node-id="854"><path d="M 164.80 159.90 L 157.80 159.90 L 156.50 160.40 L 155.90 161.60 L 155.90 166.00 L 156.10 166.60 L 157.10 167.50 L 164.80 167.60 L 166.10 167.10 L 166.70 166.00 L 166.70 161.60 L 166.10 160.40 L 164.80 159.90 Z" fill="#6e6e96" fill-opacity="0.31350002" fill-rule="nonzero" group-id="3,33,92" node-id="621" stroke="none" target-height="7.700012" target-width="10.800003" target-x="155.9" target-y="159.9"></path></g><g node-id="855"><path d="M 61.20 127.90 L 66.30 127.90 L 67.10 127.80 L 68.10 126.90 L 68.10 121.20 L 67.10 120.40 L 66.30 120.20 L 61.20 120.20 L 60.50 120.40 L 59.50 121.20 L 59.50 126.90 L 60.50 127.80 L 61.20 127.90 Z" fill="#6e6e96" fill-opacity="0.31350002" fill-rule="nonzero" group-id="3,33,93" node-id="626" stroke="none" target-height="7.7000046" target-width="8.599998" target-x="59.5" target-y="120.2"></path></g><g node-id="856"><path d="M 98.10 127.90 L 103.20 127.90 L 103.90 127.80 L 104.90 126.90 L 104.90 121.20 L 103.90 120.40 L 103.20 120.20 L 98.10 120.20 L 97.30 120.40 L 96.30 121.20 L 96.30 126.90 L 97.30 127.80 L 98.10 127.90 Z" fill="#6e6e96" fill-opacity="0.31350002" fill-rule="nonzero" group-id="3,33,94" node-id="631" stroke="none" target-height="7.7000046" target-width="8.599998" target-x="96.3" target-y="120.2"></path></g><g node-id="857"><path d="M 159.40 127.90 L 164.50 127.90 L 165.30 127.80 L 166.30 126.90 L 166.30 121.20 L 165.30 120.40 L 164.50 120.20 L 159.40 120.20 L 158.70 120.40 L 157.70 121.20 L 157.70 126.90 L 158.70 127.80 L 159.40 127.90 Z" fill="#6e6e96" fill-opacity="0.31350002" fill-rule="nonzero" group-id="3,33,95" node-id="636" stroke="none" target-height="7.7000046" target-width="8.600006" target-x="157.7" target-y="120.2"></path></g><g node-id="858"><path d="M 110.30 127.90 L 115.40 127.90 L 116.20 127.80 L 117.20 126.90 L 117.20 121.20 L 116.20 120.40 L 115.40 120.20 L 110.30 120.20 L 109.60 120.40 L 108.60 121.20 L 108.60 126.90 L 109.60 127.80 L 110.30 127.90 Z" fill="#6e6e96" fill-opacity="0.31350002" fill-rule="nonzero" group-id="3,33,96" node-id="641" stroke="none" target-height="7.7000046" target-width="8.599998" target-x="108.6" target-y="120.2"></path></g><g node-id="859"><path d="M 85.80 127.90 L 90.90 127.90 L 91.60 127.80 L 92.60 126.90 L 92.60 121.20 L 91.60 120.40 L 90.90 120.20 L 85.80 120.20 L 85.00 120.40 L 84.00 121.20 L 84.00 126.90 L 85.00 127.80 L 85.80 127.90 Z" fill="#6e6e96" fill-opacity="0.31350002" fill-rule="nonzero" group-id="3,33,97" node-id="646" stroke="none" target-height="7.7000046" target-width="8.599998" target-x="84" target-y="120.2"></path></g><g node-id="860"><path d="M 147.20 127.90 L 152.30 127.90 L 153.00 127.80 L 154.00 126.90 L 154.00 121.20 L 153.00 120.40 L 152.30 120.20 L 147.20 120.20 L 146.40 120.40 L 145.40 121.20 L 145.40 126.90 L 146.40 127.80 L 147.20 127.90 Z" fill="#6e6e96" fill-opacity="0.31350002" fill-rule="nonzero" group-id="3,33,98" node-id="651" stroke="none" target-height="7.7000046" target-width="8.600006" target-x="145.4" target-y="120.2"></path></g><g node-id="861"><path d="M 122.60 127.90 L 127.70 127.90 L 128.40 127.80 L 129.40 126.90 L 129.40 121.20 L 128.40 120.40 L 127.70 120.20 L 122.60 120.20 L 121.90 120.40 L 120.90 121.20 L 120.90 126.90 L 121.90 127.80 L 122.60 127.90 Z" fill="#6e6e96" fill-opacity="0.31350002" fill-rule="nonzero" group-id="3,33,99" node-id="656" stroke="none" target-height="7.7000046" target-width="8.499992" target-x="120.9" target-y="120.2"></path></g><g node-id="862"><path d="M 134.90 127.90 L 140.00 127.90 L 140.70 127.80 L 141.70 126.90 L 141.70 121.20 L 140.70 120.40 L 140.00 120.20 L 134.90 120.20 L 134.10 120.40 L 133.10 121.20 L 133.10 126.90 L 134.10 127.80 L 134.90 127.90 Z" fill="#6e6e96" fill-opacity="0.31350002" fill-rule="nonzero" group-id="3,33,100" node-id="661" stroke="none" target-height="7.7000046" target-width="8.599991" target-x="133.1" target-y="120.2"></path></g><g node-id="863"><path d="M 73.50 127.90 L 78.60 127.90 L 79.30 127.80 L 80.30 126.90 L 80.30 121.20 L 79.30 120.40 L 78.60 120.20 L 73.50 120.20 L 72.80 120.40 L 71.80 121.20 L 71.80 126.90 L 72.80 127.80 L 73.50 127.90 Z" fill="#6e6e96" fill-opacity="0.31350002" fill-rule="nonzero" group-id="3,33,101" node-id="666" stroke="none" target-height="7.7000046" target-width="8.5" target-x="71.8" target-y="120.2"></path></g><g node-id="864"><path d="M 42.00 127.90 L 54.10 127.90 L 55.50 127.40 L 56.00 126.30 L 56.00 121.90 L 55.50 120.70 L 54.10 120.20 L 42.00 120.20 L 40.70 120.70 L 40.10 121.90 L 40.10 126.30 L 40.70 127.40 L 42.00 127.90 Z" fill="#6e6e96" fill-opacity="0.31350002" fill-rule="nonzero" group-id="3,33,102" node-id="671" stroke="none" target-height="7.7000046" target-width="15.900002" target-x="40.1" target-y="120.2"></path></g><path d="M 150.40 159.90 L 143.40 159.90 L 142.10 160.40 L 141.50 161.60 L 141.50 166.00 L 142.10 167.10 L 143.40 167.60 L 150.40 167.60 L 151.70 167.10 L 152.30 166.00 L 152.30 161.60 L 151.70 160.40 L 150.40 159.90 Z" fill="#6e6e96" fill-opacity="0.31350002" fill-rule="nonzero" group-id="3,33,103" node-id="676" stroke="none" target-height="7.700012" target-width="10.800003" target-x="141.5" target-y="159.9"></path></g><g node-id="796"><path d="M 147.00 180.50 L 156.90 180.50 L 156.90 188.80 L 147.00 188.80 Z" fill="#ffe95f" fill-rule="nonzero" group-id="3,34" node-id="682" stroke="none" target-height="8.300003" target-width="9.899994" target-x="147" target-y="180.5"></path><path d="M 156.90 190.30 L 147.00 190.30 L 146.00 189.90 L 145.50 188.80 L 145.50 180.50 L 145.60 179.90 L 146.40 179.20 L 156.90 179.00 L 157.90 179.50 L 158.40 180.50 L 158.40 188.80 L 157.90 189.90 L 156.90 190.30 Z M 148.50 187.30 L 155.40 187.30 L 155.40 182.00 L 148.50 182.00 L 148.50 187.30 Z" fill="#6e6e96" fill-rule="nonzero" group-id="3,34" node-id="684" stroke="none" target-height="11.300003" target-width="12.899994" target-x="145.5" target-y="179"></path></g><g node-id="797"><path d="M 163.20 180.50 L 173.10 180.50 L 173.10 188.80 L 163.20 188.80 Z" fill="#a6ffc9" fill-rule="nonzero" group-id="3,35" node-id="689" stroke="none" target-height="8.300003" target-width="9.900009" target-x="163.2" target-y="180.5"></path><path d="M 173.10 190.30 L 163.20 190.30 L 162.10 189.90 L 161.70 188.80 L 161.70 180.50 L 162.10 179.50 L 163.20 179.00 L 173.10 179.00 L 174.10 179.50 L 174.60 180.50 L 174.60 188.80 L 174.10 189.90 L 173.10 190.30 Z M 164.70 187.30 L 171.60 187.30 L 171.60 182.00 L 164.70 182.00 L 164.70 187.30 Z" fill="#6e6e96" fill-rule="nonzero" group-id="3,35" node-id="691" stroke="none" target-height="11.300003" target-width="12.900009" target-x="161.7" target-y="179"></path></g><g node-id="798"><path d="M 178.60 100.60 L 27.70 100.60 L 26.50 100.40 L 24.50 99.30 L 23.30 97.30 L 23.20 96.10 L 23.20 100.60 L 23.80 102.90 L 25.40 104.50 L 27.70 105.10 L 178.60 105.10 L 179.80 105.00 L 181.80 103.80 L 183.00 101.80 L 183.10 100.60 L 183.10 96.10 L 183.00 97.30 L 181.80 99.30 L 179.80 100.40 L 178.60 100.60 Z" fill="#6e6e96" fill-opacity="0.25" fill-rule="nonzero" group-id="3,36" node-id="696" stroke="none" target-height="9" target-width="159.90001" target-x="23.2" target-y="96.1"></path></g><g node-id="799"><path d="M 191.90 204.70 L 12.80 204.70 L 12.20 204.60 L 11.40 203.80 L 11.40 202.60 L 12.20 201.80 L 191.90 201.70 L 193.00 202.10 L 193.40 203.20 L 193.00 204.20 L 191.90 204.70 Z" fill="#6e6e96" fill-opacity="0.15" fill-rule="nonzero" group-id="3,37" node-id="701" stroke="none" target-height="3" target-width="182" target-x="11.4" target-y="201.7"></path></g><path d="M 39.10 31.60 L 167.70 31.60 L 167.70 49.00 L 39.10 49.00 Z" fill="#ffd4d4" fill-rule="nonzero" group-id="3" node-id="704" stroke="none" target-height="17.4" target-width="128.6" target-x="39.1" target-y="31.6"></path><path d="M 39.10 56.10 L 72.90 56.10 L 72.90 72.20 L 39.10 72.20 Z" fill="#d6eefa" fill-rule="nonzero" group-id="3" node-id="706" stroke="none" target-height="16.099998" target-width="33.800003" target-x="39.1" target-y="56.1"></path><path d="M 133.90 56.10 L 167.70 56.10 L 167.70 72.20 L 133.90 72.20 Z" fill="#d6eefa" fill-rule="nonzero" group-id="3" node-id="708" stroke="none" target-height="16.099998" target-width="33.800003" target-x="133.9" target-y="56.1"></path><path d="M 86.50 56.10 L 120.30 56.10 L 120.30 72.20 L 86.50 72.20 Z" fill="#d6eefa" fill-rule="nonzero" group-id="3" node-id="710" stroke="none" target-height="16.099998" target-width="33.800003" target-x="86.5" target-y="56.1"></path><g node-id="800"><path d="M 60.10 26.90 L 39.10 26.90 L 38.50 26.80 L 37.70 26.00 L 37.70 24.80 L 38.50 24.00 L 60.10 23.90 L 61.20 24.40 L 61.60 25.40 L 61.20 26.50 L 60.10 26.90 Z" fill="#6e6e96" fill-opacity="0.35" fill-rule="nonzero" group-id="3,38" node-id="714" stroke="none" target-height="3" target-width="23.899998" target-x="37.7" target-y="23.9"></path></g><g node-id="801"><path d="M 134.50 26.90 L 126.80 26.80 L 126.00 26.00 L 125.90 25.40 L 126.00 24.80 L 126.80 24.00 L 135.10 24.00 L 135.90 24.80 L 135.90 26.00 L 135.10 26.80 L 134.50 26.90 Z" fill="#6e6e96" fill-opacity="0.3" fill-rule="nonzero" group-id="3,39" node-id="719" stroke="none" target-height="2.8999996" target-width="9.999992" target-x="125.9" target-y="24"></path></g><g node-id="802"><path d="M 149.70 26.90 L 143.00 26.80 L 142.20 26.00 L 142.20 24.80 L 143.00 24.00 L 143.50 23.90 L 150.30 24.00 L 151.10 24.80 L 151.10 26.00 L 150.30 26.80 L 149.70 26.90 Z" fill="#6e6e96" fill-opacity="0.3" fill-rule="nonzero" group-id="3,40" node-id="724" stroke="none" target-height="3" target-width="8.900009" target-x="142.2" target-y="23.9"></path></g><g node-id="803"><path d="M 167.20 26.90 L 157.20 26.80 L 156.40 26.00 L 156.40 24.80 L 157.20 24.00 L 157.80 23.90 L 167.80 24.00 L 168.60 24.80 L 168.60 26.00 L 167.80 26.80 L 167.20 26.90 Z" fill="#6e6e96" fill-opacity="0.3" fill-rule="nonzero" group-id="3,41" node-id="729" stroke="none" target-height="3" target-width="12.200012" target-x="156.4" target-y="23.9"></path></g><path d="M 172.30 19.90 L 32.50 19.90 L 31.50 19.40 L 31.00 18.40 L 31.50 17.30 L 32.50 16.90 L 172.30 16.90 L 173.30 17.30 L 173.80 18.40 L 173.30 19.40 L 172.30 19.90 Z" fill="#6e6e96" fill-rule="nonzero" group-id="3" node-id="732" stroke="none" target-height="3" target-width="142.8" target-x="31" target-y="16.9"></path><g node-id="804"><path d="M 56.80 81.00 L 39.10 81.00 L 38.00 80.50 L 37.60 79.50 L 38.00 78.40 L 39.10 78.00 L 56.80 78.00 L 57.90 78.40 L 58.30 79.50 L 57.90 80.50 L 56.80 81.00 Z" fill="#6e6e96" fill-opacity="0.32" fill-rule="nonzero" group-id="3,42" node-id="736" stroke="none" target-height="3" target-width="20.7" target-x="37.6" target-y="78"></path></g><g node-id="805"><path d="M 69.10 87.10 L 39.10 87.10 L 38.00 86.70 L 37.60 85.60 L 38.00 84.60 L 39.10 84.10 L 69.10 84.10 L 70.20 84.60 L 70.60 85.60 L 70.20 86.70 L 69.10 87.10 Z" fill="#6e6e96" fill-opacity="0.32" fill-rule="nonzero" group-id="3,43" node-id="741" stroke="none" target-height="3" target-width="33" target-x="37.6" target-y="84.1"></path></g><g node-id="806"><path d="M 115.30 81.00 L 86.50 81.00 L 85.90 80.80 L 85.10 80.10 L 85.10 78.90 L 85.90 78.10 L 115.30 78.00 L 116.30 78.40 L 116.80 79.50 L 116.30 80.50 L 115.30 81.00 Z" fill="#6e6e96" fill-opacity="0.32" fill-rule="nonzero" group-id="3,44" node-id="746" stroke="none" target-height="3" target-width="31.700005" target-x="85.1" target-y="78"></path></g><g node-id="807"><path d="M 103.20 87.10 L 86.50 87.10 L 85.40 86.70 L 85.00 85.60 L 85.40 84.60 L 86.50 84.10 L 103.20 84.10 L 104.30 84.60 L 104.70 85.60 L 104.30 86.70 L 103.20 87.10 Z" fill="#6e6e96" fill-opacity="0.32" fill-rule="nonzero" group-id="3,45" node-id="751" stroke="none" target-height="3" target-width="19.699997" target-x="85" target-y="84.1"></path></g><g node-id="808"><path d="M 162.00 81.00 L 133.90 81.00 L 133.30 80.80 L 132.50 80.10 L 132.50 78.90 L 133.30 78.10 L 162.00 78.00 L 163.10 78.40 L 163.50 79.50 L 163.10 80.50 L 162.00 81.00 Z" fill="#6e6e96" fill-opacity="0.32" fill-rule="nonzero" group-id="3,46" node-id="756" stroke="none" target-height="3" target-width="31" target-x="132.5" target-y="78"></path></g><path d="M 155.90 87.10 L 133.90 87.10 L 133.30 87.00 L 132.50 86.20 L 132.50 85.00 L 133.30 84.20 L 155.90 84.10 L 156.90 84.60 L 157.40 85.60 L 156.90 86.70 L 155.90 87.10 Z" fill="#6e6e96" fill-opacity="0.32" fill-rule="nonzero" group-id="3,47" node-id="761" stroke="none" target-height="3" target-width="24.899994" target-x="132.5" target-y="84.1"></path></g></svg>